<?xml version="1.0" encoding="UTF-8" standalone="no"?>
<!-- Created with Inkscape (http://www.inkscape.org/) -->

<svg
   width="122.85945mm"
   height="65.142502mm"
   viewBox="0 0 122.85945 65.142502"
   version="1.1"
   id="svg5"
   inkscape:version="1.1.1 (3bf5ae0d25, 2021-09-20, custom)"
   sodipodi:docname="sphinx_preview_logo.svg"
   xmlns:inkscape="http://www.inkscape.org/namespaces/inkscape"
   xmlns:sodipodi="http://sodipodi.sourceforge.net/DTD/sodipodi-0.dtd"
   xmlns="http://www.w3.org/2000/svg"
   xmlns:svg="http://www.w3.org/2000/svg">
  <sodipodi:namedview
     id="namedview7"
     pagecolor="#ffffff"
     bordercolor="#666666"
     borderopacity="1.0"
     inkscape:pageshadow="2"
     inkscape:pageopacity="0.0"
     inkscape:pagecheckerboard="0"
     inkscape:document-units="mm"
     showgrid="false"
     fit-margin-top="0"
     fit-margin-left="0"
     fit-margin-right="0"
     fit-margin-bottom="0"
     inkscape:zoom="1.1326109"
     inkscape:cx="83.876999"
     inkscape:cy="31.34351"
     inkscape:window-width="2560"
     inkscape:window-height="1388"
     inkscape:window-x="0"
     inkscape:window-y="0"
     inkscape:window-maximized="1"
     inkscape:current-layer="layer1" />
  <defs
     id="defs2" />
  <g
     inkscape:label="Layer 1"
     inkscape:groupmode="layer"
     id="layer1"
     transform="translate(-47.180403,-66.142487)">
    <path
       style="fill:#000000;stroke:none;stroke-width:1"
       d="m 60.919715,131.2699 c -3.936834,0.18738 -7.714567,-1.37841 -10.268427,-4.25604 -2.8841,-3.24973 -3.964778,-6.98586 -3.264581,-11.28636 0.304174,-1.8682 0.744428,-2.74303 6.02912,-11.98036 5.26165,-9.197047 5.831716,-10.080829 7.393709,-11.47048 3.266696,-2.905404 7.095404,-3.979202 11.39556,-3.196029 2.47403,0.450593 5.561011,2.124506 7.045469,3.82039 l 0.933629,1.066625 -0.69137,1.23109 -0.691376,1.231098 -1.347843,-1.519288 c -3.049015,-3.436871 -8.294153,-4.491365 -12.309114,-2.474669 -2.889347,1.451295 -3.353052,2.067717 -9.284397,12.342143 -5.691703,9.8593 -6.084579,10.7368 -6.082366,13.58577 0.0044,5.68109 4.831583,10.31223 10.744044,10.30767 2.531534,-0.002 4.917513,-0.97704 7.036141,-2.87551 0.621109,-0.55658 2.50936,-3.47988 5.033717,-7.79298 l 4.039772,-6.90229 1.864261,-0.65979 1.864266,-0.65981 -4.760449,8.25135 c -5.221808,9.05043 -6.100813,10.16109 -9.350712,11.81446 -1.969714,1.00209 -3.159796,1.31991 -5.328949,1.42271 z m 13.526178,-22.70308 c -2.426902,0.24175 -5.447774,-0.46816 -7.711829,-1.81232 -1.096242,-0.65082 -2.413282,-1.66332 -2.92679,-2.24996 l -0.93363,-1.06662 0.691371,-1.23109 0.691376,-1.2311 1.347851,1.51929 c 3.037618,3.42404 8.068756,4.46269 12.168991,2.51223 2.994603,-1.4245 3.431402,-1.99826 9.424515,-12.379695 5.691714,-9.859298 6.084584,-10.736808 6.082374,-13.58576 -0.006,-7.750401 -8.884822,-12.876598 -15.599837,-9.00657 -2.338323,1.347615 -3.097409,2.33361 -7.213448,9.369698 l -4.039147,6.904608 -1.849217,0.630318 -1.849214,0.630332 4.742776,-8.232729 c 4.289092,-7.444925 4.904539,-8.37711 6.434588,-9.741153 3.272331,-2.917263 7.069833,-3.98879 11.36132,-3.205783 2.927478,0.53414 5.241843,1.848042 7.198558,4.086692 2.997612,3.429583 3.995773,7.188538 3.083623,11.612548 -0.422195,2.047702 -0.90283,2.983128 -6.236889,12.138368 -5.356113,9.193056 -5.894731,10.013576 -7.353471,11.201226 -1.496011,1.21801 -3.997268,2.53723 -5.399986,2.84809 -0.355515,0.0788 -1.306724,0.20903 -2.113781,0.28944 z"
       id="path954" />
    <circle
       style="fill:none;stroke:#660080;stroke-width:2.665;stroke-linejoin:round;stroke-miterlimit:4;stroke-dasharray:none;stroke-opacity:0.999444;paint-order:fill markers stroke"
       id="path1216"
       cx="-69.789345"
       cy="111.62512"
       r="8.7770996"
       transform="rotate(-60)" />
    <circle
       style="fill:none;stroke:#660080;stroke-width:2.665;stroke-linejoin:round;stroke-miterlimit:4;stroke-dasharray:none;stroke-opacity:0.999444;paint-order:fill markers stroke"
       id="path1216-1"
       cx="-28.606632"
       cy="111.2855"
       r="8.7770996"
       transform="rotate(-60)" />
    <circle
       style="fill:#660080;fill-opacity:1;stroke:none;stroke-width:1.365;stroke-linejoin:round;stroke-miterlimit:4;stroke-dasharray:none;stroke-opacity:0.999444;paint-order:fill markers stroke"
       id="path1216-1-0"
       cx="-29.623348"
       cy="112.62586"
       r="5.0081849"
       transform="rotate(-60)" />
    <circle
       style="fill:#660080;stroke:none;stroke-width:1.365;stroke-linejoin:round;stroke-miterlimit:4;stroke-dasharray:none;stroke-opacity:0.999444;paint-order:fill markers stroke"
       id="path1216-1-0-3"
       cx="-68.954636"
       cy="113.10754"
       r="5.0081849"
       transform="rotate(-60)" />
    <text
       xml:space="preserve"
       style="font-size:23.6221px;line-height:0.95;font-family:sans-serif;letter-spacing:0px;word-spacing:0px;stroke-width:0.264583"
       x="170.22882"
       y="105.58671"
       id="text3513"><tspan
         sodipodi:role="line"
         id="tspan3511"
         style="font-style:normal;font-variant:normal;font-weight:normal;font-stretch:normal;font-size:23.6221px;font-family:'URW Gothic';-inkscape-font-specification:'URW Gothic, Normal';font-variant-ligatures:normal;font-variant-caps:normal;font-variant-numeric:normal;font-variant-east-asian:normal;text-align:end;text-anchor:end;stroke-width:0.264583"
         x="170.22882"
         y="105.58671">Sphinx</tspan><tspan
         sodipodi:role="line"
         style="font-style:normal;font-variant:normal;font-weight:600;font-stretch:normal;font-size:23.6221px;font-family:'URW Gothic';-inkscape-font-specification:'URW Gothic, Semi-Bold';font-variant-ligatures:normal;font-variant-caps:normal;font-variant-numeric:normal;font-variant-east-asian:normal;text-align:end;text-anchor:end;fill:#660080;stroke-width:0.264583"
         x="170.22882"
         y="128.51823"
         id="tspan3515">Preview</tspan></text>
  </g>
</svg>
